<mxfile host="65bd71144e">
    <diagram id="TY3xaXz17X7P5H4PKNxH" name="Standalone">
        <mxGraphModel dx="1315" dy="901" grid="1" gridSize="10" guides="1" tooltips="1" connect="1" arrows="1" fold="1" page="1" pageScale="1" pageWidth="850" pageHeight="1100" math="0" shadow="0">
            <root>
                <mxCell id="0"/>
                <mxCell id="1" parent="0"/>
                <mxCell id="2" value="Game Kade" style="rounded=0;whiteSpace=wrap;html=1;" vertex="1" parent="1">
                    <mxGeometry x="270" y="110" width="410" height="290" as="geometry"/>
                </mxCell>
                <mxCell id="9" style="edgeStyle=none;html=1;exitX=0;exitY=0.5;exitDx=0;exitDy=0;" edge="1" parent="1" source="3" target="8">
                    <mxGeometry relative="1" as="geometry"/>
                </mxCell>
                <mxCell id="11" style="edgeStyle=none;html=1;entryX=-0.008;entryY=0.65;entryDx=0;entryDy=0;entryPerimeter=0;fontSize=14;" edge="1" parent="1" source="3" target="5">
                    <mxGeometry relative="1" as="geometry"/>
                </mxCell>
                <mxCell id="3" value="DB Connect" style="rounded=1;whiteSpace=wrap;html=1;" vertex="1" parent="1">
                    <mxGeometry x="305" y="130" width="120" height="60" as="geometry"/>
                </mxCell>
                <mxCell id="13" style="edgeStyle=none;html=1;fontSize=14;" edge="1" parent="1" source="4" target="2">
                    <mxGeometry relative="1" as="geometry"/>
                </mxCell>
                <mxCell id="14" style="edgeStyle=none;html=1;fontSize=14;" edge="1" parent="1" source="4" target="2">
                    <mxGeometry relative="1" as="geometry"/>
                </mxCell>
                <mxCell id="15" style="edgeStyle=none;html=1;entryX=1;entryY=0.5;entryDx=0;entryDy=0;fontSize=14;" edge="1" parent="1" source="4" target="3">
                    <mxGeometry relative="1" as="geometry"/>
                </mxCell>
                <mxCell id="4" value="Stock Manage" style="rounded=1;whiteSpace=wrap;html=1;" vertex="1" parent="1">
                    <mxGeometry x="480" y="130" width="120" height="60" as="geometry"/>
                </mxCell>
                <mxCell id="12" style="edgeStyle=none;html=1;entryX=0.75;entryY=1;entryDx=0;entryDy=0;fontSize=14;" edge="1" parent="1" source="5" target="4">
                    <mxGeometry relative="1" as="geometry"/>
                </mxCell>
                <mxCell id="5" value="User Interface" style="rounded=1;whiteSpace=wrap;html=1;" vertex="1" parent="1">
                    <mxGeometry x="440" y="320" width="120" height="60" as="geometry"/>
                </mxCell>
                <mxCell id="7" style="edgeStyle=none;html=1;" edge="1" parent="1" source="6" target="5">
                    <mxGeometry relative="1" as="geometry"/>
                </mxCell>
                <mxCell id="6" value="Actor" style="shape=umlActor;verticalLabelPosition=bottom;verticalAlign=top;html=1;outlineConnect=0;" vertex="1" parent="1">
                    <mxGeometry x="485" y="470" width="30" height="60" as="geometry"/>
                </mxCell>
                <mxCell id="8" value="DB" style="shape=cylinder3;whiteSpace=wrap;html=1;boundedLbl=1;backgroundOutline=1;size=15;" vertex="1" parent="1">
                    <mxGeometry x="140" y="120" width="60" height="80" as="geometry"/>
                </mxCell>
                <mxCell id="10" value="Standalone Application Architecture" style="text;html=1;strokeColor=none;fillColor=none;align=left;verticalAlign=middle;whiteSpace=wrap;rounded=0;fontStyle=1;fontSize=14;" vertex="1" parent="1">
                    <mxGeometry x="60" y="40" width="250" height="30" as="geometry"/>
                </mxCell>
            </root>
        </mxGraphModel>
    </diagram>
    <diagram id="fuQDkmyJpnhjWdS7rkyd" name="Server Client">
        <mxGraphModel dx="1118" dy="766" grid="1" gridSize="10" guides="1" tooltips="1" connect="1" arrows="1" fold="1" page="1" pageScale="1" pageWidth="850" pageHeight="1100" math="0" shadow="0">
            <root>
                <mxCell id="5de36w6PQKp2YUf_ybb3-0"/>
                <mxCell id="5de36w6PQKp2YUf_ybb3-1" parent="5de36w6PQKp2YUf_ybb3-0"/>
                <mxCell id="Y3afsaF_I_KBzS7cysjE-0" value="" style="rounded=1;whiteSpace=wrap;html=1;fontSize=11;" vertex="1" parent="5de36w6PQKp2YUf_ybb3-1">
                    <mxGeometry x="580" y="40" width="260" height="550" as="geometry"/>
                </mxCell>
                <mxCell id="5de36w6PQKp2YUf_ybb3-2" value="Server Client Application Architecture" style="text;html=1;strokeColor=none;fillColor=none;align=left;verticalAlign=middle;whiteSpace=wrap;rounded=0;fontStyle=1;fontSize=14;" vertex="1" parent="5de36w6PQKp2YUf_ybb3-1">
                    <mxGeometry x="80" y="40" width="250" height="30" as="geometry"/>
                </mxCell>
                <mxCell id="5de36w6PQKp2YUf_ybb3-3" style="edgeStyle=none;html=1;entryX=-0.025;entryY=0.531;entryDx=0;entryDy=0;entryPerimeter=0;fontSize=14;" edge="1" parent="5de36w6PQKp2YUf_ybb3-1" source="5de36w6PQKp2YUf_ybb3-4" target="5de36w6PQKp2YUf_ybb3-6">
                    <mxGeometry relative="1" as="geometry"/>
                </mxCell>
                <mxCell id="5de36w6PQKp2YUf_ybb3-4" value="DB" style="shape=cylinder3;whiteSpace=wrap;html=1;boundedLbl=1;backgroundOutline=1;size=15;fontSize=14;" vertex="1" parent="5de36w6PQKp2YUf_ybb3-1">
                    <mxGeometry x="90" y="250" width="80" height="80" as="geometry"/>
                </mxCell>
                <mxCell id="5de36w6PQKp2YUf_ybb3-5" style="edgeStyle=none;html=1;entryX=0.16;entryY=0.55;entryDx=0;entryDy=0;entryPerimeter=0;fontSize=14;" edge="1" parent="5de36w6PQKp2YUf_ybb3-1" source="5de36w6PQKp2YUf_ybb3-6" target="5de36w6PQKp2YUf_ybb3-13">
                    <mxGeometry relative="1" as="geometry"/>
                </mxCell>
                <mxCell id="5de36w6PQKp2YUf_ybb3-6" value="Server" style="rounded=1;whiteSpace=wrap;html=1;fontSize=14;" vertex="1" parent="5de36w6PQKp2YUf_ybb3-1">
                    <mxGeometry x="230" y="100" width="120" height="360" as="geometry"/>
                </mxCell>
                <mxCell id="5de36w6PQKp2YUf_ybb3-7" style="edgeStyle=none;html=1;entryX=0.88;entryY=0.25;entryDx=0;entryDy=0;entryPerimeter=0;fontSize=14;" edge="1" parent="5de36w6PQKp2YUf_ybb3-1" source="5de36w6PQKp2YUf_ybb3-8" target="5de36w6PQKp2YUf_ybb3-13">
                    <mxGeometry relative="1" as="geometry"/>
                </mxCell>
                <mxCell id="5de36w6PQKp2YUf_ybb3-8" value="Web&lt;br&gt;Client" style="rounded=1;whiteSpace=wrap;html=1;fontSize=14;" vertex="1" parent="5de36w6PQKp2YUf_ybb3-1">
                    <mxGeometry x="610" y="110" width="120" height="110" as="geometry"/>
                </mxCell>
                <mxCell id="5de36w6PQKp2YUf_ybb3-9" style="edgeStyle=none;html=1;entryX=0.96;entryY=0.7;entryDx=0;entryDy=0;entryPerimeter=0;fontSize=14;" edge="1" parent="5de36w6PQKp2YUf_ybb3-1" source="5de36w6PQKp2YUf_ybb3-10" target="5de36w6PQKp2YUf_ybb3-13">
                    <mxGeometry relative="1" as="geometry"/>
                </mxCell>
                <mxCell id="5de36w6PQKp2YUf_ybb3-10" value="Mobile Client" style="rounded=1;whiteSpace=wrap;html=1;fontSize=14;" vertex="1" parent="5de36w6PQKp2YUf_ybb3-1">
                    <mxGeometry x="610" y="250" width="120" height="110" as="geometry"/>
                </mxCell>
                <mxCell id="5de36w6PQKp2YUf_ybb3-11" style="edgeStyle=none;html=1;fontSize=14;" edge="1" parent="5de36w6PQKp2YUf_ybb3-1" source="5de36w6PQKp2YUf_ybb3-12" target="5de36w6PQKp2YUf_ybb3-13">
                    <mxGeometry relative="1" as="geometry"/>
                </mxCell>
                <mxCell id="5de36w6PQKp2YUf_ybb3-12" value="IOT Client" style="rounded=1;whiteSpace=wrap;html=1;fontSize=14;" vertex="1" parent="5de36w6PQKp2YUf_ybb3-1">
                    <mxGeometry x="610" y="390" width="120" height="110" as="geometry"/>
                </mxCell>
                <mxCell id="5de36w6PQKp2YUf_ybb3-13" value="Internet" style="ellipse;shape=cloud;whiteSpace=wrap;html=1;fontSize=14;" vertex="1" parent="5de36w6PQKp2YUf_ybb3-1">
                    <mxGeometry x="400" y="230" width="120" height="80" as="geometry"/>
                </mxCell>
                <mxCell id="5de36w6PQKp2YUf_ybb3-14" value="JAVA,Python, C#, .Net" style="text;html=1;strokeColor=none;fillColor=none;align=center;verticalAlign=middle;whiteSpace=wrap;rounded=0;fontSize=14;" vertex="1" parent="5de36w6PQKp2YUf_ybb3-1">
                    <mxGeometry x="150" y="480" width="60" height="30" as="geometry"/>
                </mxCell>
                <mxCell id="5de36w6PQKp2YUf_ybb3-15" value="Spring, Django, Laravel" style="text;html=1;strokeColor=none;fillColor=none;align=center;verticalAlign=middle;whiteSpace=wrap;rounded=0;fontSize=14;" vertex="1" parent="5de36w6PQKp2YUf_ybb3-1">
                    <mxGeometry x="270" y="490" width="60" height="30" as="geometry"/>
                </mxCell>
                <mxCell id="5de36w6PQKp2YUf_ybb3-16" value="JS,HTML,CSS" style="text;html=1;strokeColor=none;fillColor=none;align=center;verticalAlign=middle;whiteSpace=wrap;rounded=0;fontSize=14;" vertex="1" parent="5de36w6PQKp2YUf_ybb3-1">
                    <mxGeometry x="760" y="140" width="60" height="30" as="geometry"/>
                </mxCell>
                <mxCell id="5de36w6PQKp2YUf_ybb3-17" value="Android, iOS" style="text;html=1;strokeColor=none;fillColor=none;align=center;verticalAlign=middle;whiteSpace=wrap;rounded=0;fontSize=14;" vertex="1" parent="5de36w6PQKp2YUf_ybb3-1">
                    <mxGeometry x="750" y="290" width="60" height="30" as="geometry"/>
                </mxCell>
                <mxCell id="5de36w6PQKp2YUf_ybb3-18" value="Arduino, ESP232" style="text;html=1;strokeColor=none;fillColor=none;align=center;verticalAlign=middle;whiteSpace=wrap;rounded=0;fontSize=14;" vertex="1" parent="5de36w6PQKp2YUf_ybb3-1">
                    <mxGeometry x="760" y="440" width="60" height="30" as="geometry"/>
                </mxCell>
                <mxCell id="5de36w6PQKp2YUf_ybb3-19" value="&lt;h1&gt;&lt;span&gt;Benifits&lt;/span&gt;&lt;/h1&gt;&lt;div&gt;&lt;ol&gt;&lt;li&gt;&lt;span style=&quot;font-size: 14px ; font-weight: 400&quot;&gt;Multiple users&lt;/span&gt;&lt;/li&gt;&lt;li&gt;Multiple Clients&lt;/li&gt;&lt;/ol&gt;&lt;/div&gt;" style="text;html=1;strokeColor=none;fillColor=none;spacing=5;spacingTop=-20;whiteSpace=wrap;overflow=hidden;rounded=0;fontSize=14;" vertex="1" parent="5de36w6PQKp2YUf_ybb3-1">
                    <mxGeometry x="40" y="580" width="190" height="120" as="geometry"/>
                </mxCell>
                <mxCell id="Y3afsaF_I_KBzS7cysjE-1" value="Client Applications" style="text;html=1;strokeColor=none;fillColor=none;align=center;verticalAlign=middle;whiteSpace=wrap;rounded=0;fontSize=11;" vertex="1" parent="5de36w6PQKp2YUf_ybb3-1">
                    <mxGeometry x="630" y="550" width="150" height="30" as="geometry"/>
                </mxCell>
            </root>
        </mxGraphModel>
    </diagram>
</mxfile>